<svg xmlns="http://www.w3.org/2000/svg" viewBox="0 0 584 372" width="100%" height="100%">
  <path fill="white" d="M 278 0 L 279 0 L 280 0 L 281 0 L 282 0 L 283 0 L 284 0 L 285 0 L 286 0 L 287 0 L 288 0 L 289 0 L 290 0 L 291 0 L 292 0 L 293 0 L 294 0 L 295 0 L 296 0 L 297 0 L 298 0 L 299 0 L 300 0 L 301 0 L 302 0 L 303 0 L 304 0 L 305 0 L 306 0 L 307 0 L 308 0 L 309 0 L 310 0 L 311 0 L 312 0 L 313 1 L 314 1 L 315 1 L 316 1 L 317 1 L 318 1 L 319 1 L 320 1 L 321 1 L 322 2 L 323 2 L 324 2 L 325 2 L 326 2 L 327 2 L 328 3 L 329 3 L 330 3 L 331 3 L 332 3 L 333 3 L 334 4 L 335 4 L 336 4 L 337 4 L 338 5 L 339 5 L 340 5 L 341 5 L 342 6 L 343 6 L 344 6 L 345 6 L 346 6 L 347 7 L 348 7 L 349 7 L 350 8 L 351 8 L 352 8 L 353 9 L 354 9 L 355 9 L 356 10 L 357 10 L 358 10 L 359 11 L 360 11 L 361 11 L 362 12 L 363 12 L 364 13 L 365 13 L 366 13 L 367 14 L 368 14 L 369 15 L 370 15 L 371 15 L 372 16 L 373 16 L 374 17 L 375 17 L 376 18 L 377 18 L 378 19 L 379 19 L 380 20 L 381 20 L 382 21 L 383 21 L 384 22 L 385 22 L 386 23 L 387 24 L 388 24 L 389 25 L 390 25 L 391 26 L 392 26 L 393 27 L 394 28 L 395 28 L 396 29 L 397 30 L 398 30 L 399 31 L 400 32 L 401 32 L 402 33 L 403 34 L 404 34 L 405 35 L 406 36 L 407 37 L 408 37 L 409 38 L 410 39 L 411 40 L 412 40 L 413 41 L 414 42 L 415 43 L 416 44 L 417 45 L 418 45 L 419 46 L 420 47 L 421 48 L 422 49 L 423 50 L 424 51 L 425 52 L 426 53 L 427 54 L 428 55 L 429 56 L 430 57 L 431 58 L 432 59 L 433 60 L 434 61 L 434 62 L 435 63 L 436 64 L 437 65 L 438 66 L 439 67 L 439 68 L 440 69 L 441 70 L 442 71 L 443 72 L 443 73 L 444 74 L 445 75 L 446 76 L 446 77 L 447 78 L 448 79 L 448 80 L 449 81 L 450 82 L 450 83 L 451 84 L 452 85 L 452 86 L 453 87 L 454 88 L 454 89 L 455 90 L 455 91 L 456 92 L 457 93 L 457 94 L 458 95 L 458 96 L 459 97 L 459 98 L 460 99 L 460 100 L 461 101 L 462 102 L 462 103 L 462 104 L 463 105 L 463 106 L 464 107 L 464 108 L 465 109 L 465 110 L 466 111 L 466 112 L 466 113 L 467 114 L 467 115 L 468 116 L 468 117 L 468 118 L 469 119 L 469 120 L 470 121 L 470 122 L 470 123 L 469 123 L 468 124 L 467 124 L 466 123 L 465 122 L 465 121 L 464 120 L 463 119 L 463 118 L 462 117 L 461 116 L 461 115 L 460 114 L 459 113 L 459 112 L 458 111 L 457 110 L 456 109 L 456 108 L 455 107 L 454 106 L 454 105 L 453 104 L 452 103 L 451 102 L 450 101 L 450 100 L 449 99 L 448 98 L 447 97 L 446 96 L 445 95 L 444 94 L 443 93 L 442 92 L 441 91 L 440 90 L 439 89 L 438 88 L 437 87 L 436 87 L 436 86 L 435 85 L 434 85 L 433 84 L 432 83 L 431 82 L 430 81 L 429 81 L 428 80 L 427 79 L 426 78 L 425 77 L 424 77 L 423 76 L 422 75 L 421 74 L 420 74 L 419 73 L 418 72 L 417 72 L 416 71 L 415 71 L 414 70 L 413 69 L 412 69 L 411 68 L 410 68 L 409 67 L 408 67 L 407 66 L 406 65 L 405 65 L 404 64 L 403 64 L 402 63 L 401 63 L 400 62 L 399 62 L 398 62 L 397 61 L 396 61 L 395 60 L 394 60 L 393 59 L 392 59 L 391 59 L 390 58 L 389 58 L 388 57 L 387 57 L 386 57 L 385 56 L 384 56 L 383 56 L 382 55 L 381 55 L 380 55 L 379 54 L 378 54 L 377 54 L 376 54 L 375 53 L 374 53 L 373 53 L 372 53 L 371 52 L 370 52 L 369 52 L 368 52 L 367 52 L 366 51 L 365 51 L 364 51 L 363 51 L 362 51 L 361 50 L 360 50 L 359 50 L 358 50 L 357 50 L 356 50 L 355 50 L 354 49 L 353 49 L 352 49 L 351 49 L 350 49 L 349 49 L 348 49 L 347 49 L 346 48 L 345 48 L 344 48 L 343 48 L 342 48 L 341 48 L 340 48 L 339 48 L 338 48 L 337 48 L 336 48 L 335 48 L 334 48 L 333 48 L 332 48 L 331 48 L 330 48 L 329 49 L 328 49 L 327 49 L 326 49 L 325 49 L 324 49 L 323 49 L 322 49 L 321 49 L 320 49 L 319 49 L 318 49 L 317 50 L 316 50 L 315 50 L 314 50 L 313 50 L 312 50 L 311 50 L 310 51 L 309 51 L 308 51 L 307 51 L 306 51 L 305 52 L 304 52 L 303 52 L 302 52 L 301 53 L 300 53 L 299 53 L 298 53 L 297 54 L 296 54 L 295 54 L 294 54 L 293 55 L 292 55 L 291 55 L 290 56 L 289 56 L 288 56 L 287 57 L 286 57 L 285 57 L 284 58 L 283 58 L 282 59 L 281 59 L 280 59 L 279 60 L 278 60 L 277 61 L 276 61 L 275 61 L 274 62 L 273 62 L 272 63 L 271 63 L 270 64 L 269 64 L 268 65 L 267 65 L 266 66 L 265 67 L 264 67 L 263 68 L 262 68 L 261 69 L 260 69 L 259 70 L 258 71 L 257 71 L 256 72 L 255 72 L 254 73 L 253 74 L 252 74 L 251 75 L 250 76 L 249 77 L 248 77 L 247 78 L 246 79 L 245 79 L 244 80 L 243 81 L 242 82 L 241 83 L 240 84 L 239 84 L 238 85 L 237 86 L 236 87 L 235 88 L 234 89 L 233 90 L 232 91 L 231 92 L 230 93 L 229 94 L 228 95 L 227 96 L 226 97 L 225 98 L 224 99 L 223 100 L 222 101 L 222 102 L 221 103 L 220 104 L 219 105 L 218 106 L 217 107 L 217 108 L 216 109 L 215 110 L 214 111 L 214 112 L 213 113 L 212 114 L 212 115 L 211 116 L 210 117 L 210 118 L 209 119 L 208 120 L 208 121 L 207 122 L 207 123 L 206 124 L 206 125 L 205 126 L 204 127 L 204 128 L 203 129 L 203 130 L 202 131 L 202 132 L 201 133 L 201 134 L 200 135 L 200 136 L 199 137 L 199 138 L 199 139 L 198 140 L 198 141 L 197 142 L 197 143 L 196 144 L 196 145 L 196 146 L 195 147 L 195 148 L 195 149 L 194 150 L 194 151 L 193 152 L 193 153 L 193 154 L 193 155 L 192 156 L 192 157 L 192 158 L 192 159 L 191 160 L 191 161 L 191 162 L 191 163 L 190 164 L 190 165 L 190 166 L 190 167 L 189 168 L 189 169 L 189 170 L 189 171 L 189 172 L 188 173 L 188 174 L 188 175 L 188 176 L 188 177 L 188 178 L 188 179 L 187 180 L 187 181 L 187 182 L 187 183 L 187 184 L 187 185 L 187 186 L 187 187 L 187 188 L 187 189 L 186 190 L 186 191 L 186 192 L 186 193 L 186 194 L 186 195 L 186 196 L 186 197 L 186 198 L 186 199 L 186 200 L 186 201 L 186 202 L 186 203 L 186 204 L 186 205 L 186 206 L 186 207 L 186 208 L 187 209 L 187 210 L 187 211 L 187 212 L 187 213 L 187 214 L 187 215 L 187 216 L 187 217 L 187 218 L 188 219 L 188 220 L 188 221 L 188 222 L 188 223 L 188 224 L 188 225 L 189 226 L 189 227 L 189 228 L 189 229 L 189 230 L 190 231 L 190 232 L 190 233 L 190 234 L 191 235 L 191 236 L 191 237 L 191 238 L 192 239 L 192 240 L 192 241 L 193 242 L 193 243 L 193 244 L 194 245 L 194 246 L 194 247 L 194 248 L 193 248 L 192 248 L 191 248 L 190 248 L 189 248 L 188 248 L 187 248 L 186 249 L 185 249 L 184 249 L 183 249 L 182 249 L 181 249 L 180 249 L 179 249 L 178 250 L 177 250 L 176 250 L 175 250 L 174 250 L 173 250 L 172 250 L 171 250 L 170 250 L 169 250 L 168 250 L 167 251 L 166 251 L 165 251 L 164 251 L 163 251 L 162 251 L 161 251 L 160 251 L 159 251 L 158 251 L 157 251 L 156 251 L 155 252 L 154 252 L 153 252 L 152 252 L 151 252 L 150 252 L 149 252 L 148 252 L 147 252 L 146 252 L 145 252 L 144 252 L 143 252 L 142 252 L 141 252 L 140 252 L 139 252 L 138 252 L 137 252 L 136 252 L 135 252 L 134 252 L 133 252 L 132 252 L 131 252 L 130 252 L 129 252 L 128 252 L 127 252 L 126 252 L 125 252 L 124 252 L 123 252 L 122 251 L 122 250 L 121 249 L 121 248 L 121 247 L 120 246 L 120 245 L 120 244 L 119 243 L 119 242 L 119 241 L 118 240 L 118 239 L 118 238 L 118 237 L 117 236 L 117 235 L 117 234 L 116 233 L 116 232 L 116 231 L 116 230 L 115 229 L 115 228 L 115 227 L 115 226 L 114 225 L 114 224 L 114 223 L 114 222 L 114 221 L 113 220 L 113 219 L 113 218 L 113 217 L 113 216 L 113 215 L 112 214 L 112 213 L 112 212 L 112 211 L 112 210 L 112 209 L 112 208 L 112 207 L 111 206 L 111 205 L 111 204 L 111 203 L 111 202 L 111 201 L 111 200 L 111 199 L 111 198 L 111 197 L 111 196 L 111 195 L 111 194 L 110 193 L 110 192 L 110 191 L 110 190 L 110 189 L 110 188 L 110 187 L 110 186 L 110 185 L 110 184 L 110 183 L 110 182 L 110 181 L 110 180 L 110 179 L 110 178 L 111 177 L 111 176 L 111 175 L 111 174 L 111 173 L 111 172 L 111 171 L 111 170 L 111 169 L 111 168 L 111 167 L 111 166 L 111 165 L 112 164 L 112 163 L 112 162 L 112 161 L 112 160 L 112 159 L 112 158 L 113 157 L 113 156 L 113 155 L 113 154 L 113 153 L 113 152 L 114 151 L 114 150 L 114 149 L 114 148 L 114 147 L 115 146 L 115 145 L 115 144 L 115 143 L 115 142 L 116 141 L 116 140 L 116 139 L 116 138 L 117 137 L 117 136 L 117 135 L 118 134 L 118 133 L 118 132 L 118 131 L 119 130 L 119 129 L 119 128 L 119 127 L 120 126 L 120 125 L 121 124 L 121 123 L 121 122 L 122 121 L 122 120 L 122 119 L 123 118 L 123 117 L 124 116 L 124 115 L 124 114 L 125 113 L 125 112 L 126 111 L 126 110 L 126 109 L 127 108 L 127 107 L 128 106 L 128 105 L 129 104 L 129 103 L 130 102 L 130 101 L 131 100 L 131 99 L 132 98 L 132 97 L 133 96 L 133 95 L 134 94 L 135 93 L 135 92 L 136 91 L 136 90 L 137 89 L 138 88 L 138 87 L 139 86 L 139 85 L 140 84 L 141 83 L 141 82 L 142 81 L 143 80 L 143 79 L 144 78 L 145 77 L 146 76 L 146 75 L 147 74 L 148 73 L 149 72 L 149 71 L 150 70 L 151 69 L 152 68 L 152 67 L 153 66 L 154 65 L 155 64 L 156 63 L 157 62 L 158 61 L 159 60 L 159 59 L 160 58 L 161 57 L 162 56 L 163 55 L 164 54 L 165 53 L 166 52 L 167 51 L 168 50 L 169 50 L 170 49 L 171 48 L 172 47 L 173 46 L 174 45 L 175 44 L 176 43 L 177 42 L 178 42 L 179 41 L 180 40 L 181 39 L 182 38 L 183 37 L 184 37 L 185 36 L 186 35 L 187 35 L 188 34 L 189 33 L 190 33 L 191 32 L 192 31 L 193 31 L 194 30 L 195 29 L 196 29 L 197 28 L 198 27 L 199 27 L 200 26 L 201 26 L 202 25 L 203 24 L 204 24 L 205 23 L 206 23 L 207 22 L 208 22 L 209 21 L 210 20 L 211 20 L 212 20 L 213 19 L 214 18 L 215 18 L 216 17 L 217 17 L 218 17 L 219 16 L 220 16 L 221 15 L 222 15 L 223 14 L 224 14 L 225 14 L 226 13 L 227 13 L 228 12 L 229 12 L 230 12 L 231 11 L 232 11 L 233 11 L 234 10 L 235 10 L 236 10 L 237 9 L 238 9 L 239 8 L 240 8 L 241 8 L 242 8 L 243 7 L 244 7 L 245 7 L 246 6 L 247 6 L 248 6 L 249 6 L 250 5 L 251 5 L 252 5 L 253 4 L 254 4 L 255 4 L 256 4 L 257 4 L 258 3 L 259 3 L 260 3 L 261 3 L 262 3 L 263 2 L 264 2 L 265 2 L 266 2 L 267 2 L 268 2 L 269 2 L 270 1 L 271 1 L 272 1 L 273 1 L 274 1 L 275 1 L 276 1 L 277 1 Z" />
  <path fill="white" d="M 536 55 L 537 55 L 538 55 L 539 55 L 540 56 L 541 56 L 542 57 L 543 57 L 544 57 L 545 58 L 546 58 L 547 59 L 548 59 L 549 60 L 550 60 L 551 61 L 552 61 L 553 61 L 554 62 L 555 63 L 556 63 L 557 64 L 558 64 L 559 65 L 560 65 L 561 66 L 562 67 L 563 68 L 564 68 L 565 69 L 566 70 L 567 71 L 568 72 L 569 73 L 570 74 L 571 75 L 572 76 L 573 77 L 574 78 L 575 79 L 575 80 L 576 81 L 577 82 L 577 83 L 578 84 L 579 85 L 579 86 L 579 87 L 580 88 L 580 89 L 581 90 L 581 91 L 581 92 L 582 93 L 582 94 L 582 95 L 583 96 L 583 97 L 583 98 L 583 99 L 583 100 L 583 101 L 583 102 L 583 103 L 583 104 L 583 105 L 583 106 L 583 107 L 583 108 L 583 109 L 583 110 L 583 111 L 583 112 L 583 113 L 583 114 L 582 115 L 582 116 L 582 117 L 582 118 L 581 119 L 581 120 L 581 121 L 581 122 L 580 123 L 580 124 L 580 125 L 579 126 L 579 127 L 578 128 L 578 129 L 578 130 L 577 131 L 577 132 L 576 133 L 576 134 L 575 135 L 575 136 L 574 137 L 574 138 L 573 139 L 572 140 L 572 141 L 571 142 L 571 143 L 570 144 L 569 145 L 569 146 L 568 147 L 567 148 L 567 149 L 566 150 L 565 151 L 564 152 L 564 153 L 563 154 L 562 155 L 561 156 L 560 157 L 560 158 L 559 159 L 558 160 L 557 161 L 556 162 L 555 163 L 554 164 L 553 165 L 552 166 L 551 167 L 551 168 L 550 168 L 549 169 L 549 170 L 548 171 L 547 172 L 546 173 L 545 173 L 544 174 L 543 175 L 542 176 L 541 177 L 540 178 L 539 179 L 538 180 L 537 181 L 536 182 L 535 183 L 534 184 L 533 185 L 532 185 L 531 186 L 530 187 L 529 188 L 528 189 L 527 190 L 526 190 L 525 191 L 524 192 L 523 193 L 522 194 L 521 194 L 520 195 L 519 196 L 518 197 L 517 197 L 516 198 L 515 199 L 514 200 L 513 200 L 512 201 L 511 202 L 510 203 L 509 203 L 508 204 L 507 205 L 506 205 L 505 206 L 504 207 L 503 207 L 502 208 L 501 209 L 500 210 L 499 210 L 498 211 L 497 212 L 496 212 L 495 213 L 494 214 L 493 214 L 492 215 L 491 216 L 490 216 L 489 217 L 488 218 L 487 218 L 486 219 L 485 219 L 484 220 L 483 221 L 482 221 L 481 222 L 480 222 L 479 223 L 478 224 L 477 224 L 476 225 L 475 225 L 474 226 L 473 227 L 472 227 L 471 228 L 470 228 L 469 229 L 468 230 L 467 230 L 466 231 L 465 231 L 464 232 L 463 232 L 462 233 L 461 233 L 460 234 L 459 235 L 458 235 L 457 236 L 456 236 L 455 237 L 454 237 L 453 238 L 452 239 L 451 239 L 450 240 L 449 240 L 448 241 L 447 241 L 446 242 L 445 242 L 444 243 L 443 243 L 442 244 L 441 244 L 440 245 L 439 245 L 438 246 L 437 246 L 436 247 L 435 247 L 434 248 L 433 248 L 432 249 L 431 249 L 430 250 L 429 250 L 428 251 L 427 251 L 426 252 L 425 252 L 424 253 L 423 253 L 422 253 L 421 254 L 420 255 L 419 255 L 418 255 L 417 256 L 416 256 L 415 257 L 414 257 L 413 258 L 412 258 L 411 259 L 410 259 L 409 259 L 408 260 L 407 261 L 406 261 L 405 261 L 404 262 L 403 262 L 402 263 L 401 263 L 400 264 L 399 264 L 398 264 L 397 265 L 396 265 L 395 266 L 394 266 L 393 267 L 392 267 L 391 267 L 390 268 L 389 268 L 388 269 L 387 269 L 386 269 L 385 270 L 384 270 L 383 271 L 382 271 L 381 271 L 380 272 L 379 272 L 378 273 L 377 273 L 376 273 L 375 274 L 374 274 L 373 275 L 372 275 L 371 275 L 370 276 L 369 276 L 368 277 L 367 277 L 366 277 L 365 278 L 364 278 L 363 278 L 362 279 L 361 279 L 360 280 L 359 280 L 358 280 L 357 281 L 356 281 L 355 281 L 354 282 L 353 282 L 352 283 L 351 283 L 350 283 L 349 284 L 348 284 L 347 284 L 346 285 L 345 285 L 344 285 L 343 286 L 342 286 L 341 286 L 340 287 L 339 287 L 338 287 L 337 288 L 336 288 L 335 289 L 334 289 L 333 289 L 332 290 L 331 290 L 330 290 L 329 291 L 328 291 L 327 291 L 326 292 L 325 292 L 324 292 L 323 293 L 322 293 L 321 293 L 320 294 L 319 294 L 318 294 L 317 294 L 316 295 L 315 295 L 314 295 L 313 296 L 312 296 L 311 296 L 310 297 L 309 297 L 308 297 L 307 297 L 306 298 L 305 298 L 304 298 L 303 299 L 302 299 L 301 299 L 300 299 L 299 300 L 298 300 L 297 300 L 296 301 L 295 301 L 294 301 L 293 302 L 292 302 L 291 302 L 290 302 L 289 303 L 288 303 L 287 303 L 286 303 L 285 304 L 284 304 L 283 304 L 282 305 L 281 305 L 280 305 L 279 305 L 278 306 L 277 306 L 276 306 L 275 306 L 274 307 L 273 307 L 272 307 L 271 307 L 270 308 L 269 308 L 268 308 L 267 308 L 266 309 L 265 309 L 264 309 L 263 309 L 262 310 L 261 310 L 260 310 L 259 310 L 258 311 L 257 311 L 256 311 L 255 311 L 254 311 L 253 312 L 252 312 L 251 312 L 250 312 L 249 312 L 248 313 L 247 313 L 246 313 L 245 313 L 244 313 L 243 314 L 242 314 L 241 315 L 242 316 L 243 317 L 244 317 L 245 318 L 246 319 L 247 320 L 248 321 L 249 321 L 250 322 L 251 323 L 252 323 L 253 324 L 254 325 L 255 325 L 256 326 L 257 327 L 258 327 L 259 328 L 260 329 L 261 329 L 262 330 L 263 330 L 264 331 L 265 331 L 266 332 L 267 332 L 268 333 L 269 333 L 270 334 L 271 334 L 272 335 L 273 335 L 274 336 L 275 336 L 276 337 L 277 337 L 278 338 L 279 338 L 280 338 L 281 339 L 282 339 L 283 340 L 284 340 L 285 340 L 286 341 L 287 341 L 288 341 L 289 342 L 290 342 L 291 342 L 292 343 L 293 343 L 294 343 L 295 344 L 296 344 L 297 344 L 298 344 L 299 345 L 300 345 L 301 345 L 302 345 L 303 346 L 304 346 L 305 346 L 306 346 L 307 347 L 308 347 L 309 347 L 310 347 L 311 347 L 312 347 L 313 348 L 314 348 L 315 348 L 316 348 L 317 348 L 318 348 L 319 348 L 320 349 L 321 349 L 322 349 L 323 349 L 324 349 L 325 349 L 326 349 L 327 349 L 328 349 L 329 349 L 330 349 L 331 349 L 332 349 L 333 349 L 334 350 L 335 350 L 336 349 L 337 349 L 338 349 L 339 349 L 340 349 L 341 349 L 342 349 L 343 349 L 344 349 L 345 349 L 346 349 L 347 349 L 348 349 L 349 349 L 350 349 L 351 349 L 352 349 L 353 348 L 354 348 L 355 348 L 356 348 L 357 348 L 358 348 L 359 348 L 360 348 L 361 347 L 362 347 L 363 347 L 364 347 L 365 347 L 366 346 L 367 346 L 368 346 L 369 346 L 370 346 L 371 345 L 372 345 L 373 345 L 374 345 L 375 344 L 376 344 L 377 344 L 378 343 L 379 343 L 380 343 L 381 343 L 382 342 L 383 342 L 384 342 L 385 341 L 386 341 L 387 341 L 388 340 L 389 340 L 390 339 L 391 339 L 392 339 L 393 338 L 394 338 L 395 337 L 396 337 L 397 337 L 398 338 L 399 339 L 398 340 L 398 341 L 397 341 L 396 342 L 395 342 L 394 343 L 393 344 L 392 344 L 391 345 L 390 346 L 389 346 L 388 347 L 387 347 L 386 348 L 385 348 L 384 349 L 383 349 L 382 350 L 381 351 L 380 351 L 379 352 L 378 352 L 377 353 L 376 353 L 375 353 L 374 354 L 373 354 L 372 355 L 371 355 L 370 356 L 369 356 L 368 357 L 367 357 L 366 357 L 365 358 L 364 358 L 363 359 L 362 359 L 361 359 L 360 360 L 359 360 L 358 361 L 357 361 L 356 361 L 355 362 L 354 362 L 353 362 L 352 363 L 351 363 L 350 363 L 349 363 L 348 364 L 347 364 L 346 364 L 345 365 L 344 365 L 343 365 L 342 365 L 341 366 L 340 366 L 339 366 L 338 366 L 337 367 L 336 367 L 335 367 L 334 367 L 333 368 L 332 368 L 331 368 L 330 368 L 329 368 L 328 368 L 327 369 L 326 369 L 325 369 L 324 369 L 323 369 L 322 369 L 321 370 L 320 370 L 319 370 L 318 370 L 317 370 L 316 370 L 315 370 L 314 370 L 313 371 L 312 371 L 311 371 L 310 371 L 309 371 L 308 371 L 307 371 L 306 371 L 305 371 L 304 371 L 303 371 L 302 371 L 301 371 L 300 371 L 299 371 L 298 371 L 297 371 L 296 371 L 295 371 L 294 371 L 293 371 L 292 371 L 291 371 L 290 371 L 289 371 L 288 371 L 287 371 L 286 371 L 285 371 L 284 371 L 283 371 L 282 371 L 281 371 L 280 371 L 279 371 L 278 371 L 277 370 L 276 370 L 275 370 L 274 370 L 273 370 L 272 370 L 271 370 L 270 370 L 269 369 L 268 369 L 267 369 L 266 369 L 265 369 L 264 369 L 263 368 L 262 368 L 261 368 L 260 368 L 259 368 L 258 368 L 257 367 L 256 367 L 255 367 L 254 367 L 253 366 L 252 366 L 251 366 L 250 366 L 249 365 L 248 365 L 247 365 L 246 365 L 245 364 L 244 364 L 243 364 L 242 363 L 241 363 L 240 363 L 239 362 L 238 362 L 237 362 L 236 361 L 235 361 L 234 361 L 233 360 L 232 360 L 231 360 L 230 359 L 229 359 L 228 359 L 227 358 L 226 358 L 225 357 L 224 357 L 223 356 L 222 356 L 221 356 L 220 355 L 219 355 L 218 354 L 217 354 L 216 353 L 215 353 L 214 353 L 213 352 L 212 351 L 211 351 L 210 350 L 209 350 L 208 349 L 207 349 L 206 348 L 205 348 L 204 347 L 203 347 L 202 346 L 201 345 L 200 345 L 199 344 L 198 344 L 197 343 L 196 342 L 195 342 L 194 341 L 193 340 L 192 340 L 191 339 L 190 338 L 189 338 L 188 337 L 187 336 L 186 336 L 185 335 L 184 334 L 183 333 L 182 332 L 181 332 L 180 331 L 179 330 L 178 329 L 177 328 L 176 328 L 175 327 L 174 326 L 173 325 L 172 325 L 171 325 L 170 325 L 169 325 L 168 325 L 167 325 L 166 325 L 165 325 L 164 325 L 163 325 L 162 325 L 161 326 L 160 326 L 159 326 L 158 326 L 157 326 L 156 326 L 155 326 L 154 326 L 153 326 L 152 326 L 151 326 L 150 326 L 149 326 L 148 326 L 147 326 L 146 327 L 145 327 L 144 327 L 143 327 L 142 327 L 141 327 L 140 327 L 139 327 L 138 327 L 137 327 L 136 327 L 135 327 L 134 327 L 133 327 L 132 327 L 131 327 L 130 327 L 129 327 L 128 327 L 127 327 L 126 327 L 125 327 L 124 327 L 123 327 L 122 327 L 121 327 L 120 327 L 119 327 L 118 327 L 117 327 L 116 327 L 115 327 L 114 327 L 113 327 L 112 327 L 111 327 L 110 327 L 109 326 L 108 326 L 107 326 L 106 326 L 105 326 L 104 326 L 103 326 L 102 326 L 101 326 L 100 326 L 99 326 L 98 326 L 97 326 L 96 325 L 95 325 L 94 325 L 93 325 L 92 325 L 91 325 L 90 325 L 89 325 L 88 325 L 87 325 L 86 324 L 85 324 L 84 324 L 83 324 L 82 324 L 81 324 L 80 324 L 79 324 L 78 323 L 77 323 L 76 323 L 75 323 L 74 323 L 73 323 L 72 323 L 71 322 L 70 322 L 69 322 L 68 322 L 67 322 L 66 321 L 65 321 L 64 321 L 63 321 L 62 321 L 61 320 L 60 320 L 59 320 L 58 320 L 57 319 L 56 319 L 55 319 L 54 319 L 53 318 L 52 318 L 51 318 L 50 317 L 49 317 L 48 317 L 47 316 L 46 316 L 45 316 L 44 315 L 43 315 L 42 315 L 41 314 L 40 314 L 39 313 L 38 313 L 37 313 L 36 312 L 35 312 L 34 311 L 33 311 L 32 310 L 31 310 L 30 309 L 29 309 L 28 308 L 27 308 L 26 307 L 25 306 L 24 306 L 23 305 L 22 305 L 21 304 L 20 303 L 19 302 L 18 302 L 17 301 L 16 300 L 15 299 L 14 298 L 13 297 L 12 296 L 11 295 L 10 294 L 9 293 L 8 292 L 8 291 L 7 290 L 6 289 L 6 288 L 5 287 L 5 286 L 4 285 L 4 284 L 3 283 L 3 282 L 2 281 L 2 280 L 2 279 L 1 278 L 1 277 L 1 276 L 1 275 L 0 274 L 0 273 L 0 272 L 0 271 L 0 270 L 0 269 L 0 268 L 0 267 L 0 266 L 0 265 L 0 264 L 0 263 L 0 262 L 0 261 L 0 260 L 0 259 L 0 258 L 0 257 L 1 256 L 1 255 L 1 254 L 1 253 L 1 252 L 2 251 L 2 250 L 2 249 L 3 248 L 3 247 L 3 246 L 4 245 L 4 244 L 4 243 L 5 242 L 5 241 L 6 240 L 6 239 L 7 238 L 7 237 L 8 236 L 8 235 L 9 234 L 9 233 L 10 232 L 10 231 L 11 230 L 12 229 L 12 228 L 13 227 L 14 226 L 14 225 L 15 224 L 16 223 L 17 223 L 18 223 L 19 223 L 20 224 L 20 225 L 20 226 L 20 227 L 20 228 L 20 229 L 19 230 L 19 231 L 19 232 L 19 233 L 19 234 L 19 235 L 18 236 L 18 237 L 18 238 L 18 239 L 18 240 L 18 241 L 18 242 L 19 243 L 19 244 L 19 245 L 19 246 L 19 247 L 20 248 L 20 249 L 20 250 L 21 251 L 21 252 L 21 253 L 22 254 L 23 255 L 23 256 L 24 257 L 24 258 L 25 259 L 26 260 L 26 261 L 27 262 L 28 263 L 29 264 L 30 265 L 31 266 L 32 267 L 33 268 L 34 268 L 35 269 L 36 270 L 37 271 L 38 271 L 39 272 L 40 272 L 41 273 L 42 274 L 43 274 L 44 275 L 45 275 L 46 276 L 47 276 L 48 277 L 49 277 L 50 278 L 51 278 L 52 278 L 53 279 L 54 279 L 55 280 L 56 280 L 57 280 L 58 281 L 59 281 L 60 281 L 61 282 L 62 282 L 63 282 L 64 283 L 65 283 L 66 283 L 67 283 L 68 284 L 69 284 L 70 284 L 71 284 L 72 285 L 73 285 L 74 285 L 75 285 L 76 285 L 77 286 L 78 286 L 79 286 L 80 286 L 81 286 L 82 286 L 83 287 L 84 287 L 85 287 L 86 287 L 87 287 L 88 287 L 89 288 L 90 288 L 91 288 L 92 288 L 93 288 L 94 288 L 95 288 L 96 288 L 97 288 L 98 288 L 99 289 L 100 289 L 101 289 L 102 289 L 103 289 L 104 289 L 105 289 L 106 289 L 107 289 L 108 289 L 109 289 L 110 289 L 111 289 L 112 289 L 113 289 L 114 289 L 115 289 L 116 290 L 117 290 L 118 290 L 119 290 L 120 290 L 121 290 L 122 290 L 123 290 L 124 290 L 125 290 L 126 290 L 127 290 L 128 290 L 129 290 L 130 290 L 131 290 L 132 290 L 133 290 L 134 290 L 135 290 L 136 290 L 137 290 L 138 289 L 139 289 L 140 289 L 141 289 L 142 289 L 143 289 L 144 289 L 145 289 L 146 289 L 147 289 L 148 289 L 149 289 L 150 289 L 151 289 L 152 289 L 153 289 L 154 289 L 155 289 L 156 289 L 157 289 L 158 288 L 159 288 L 160 288 L 161 288 L 162 288 L 163 288 L 164 288 L 165 288 L 166 288 L 167 288 L 168 288 L 169 287 L 170 287 L 171 287 L 172 287 L 173 287 L 174 287 L 175 287 L 176 287 L 177 287 L 178 287 L 179 287 L 180 286 L 181 286 L 182 286 L 183 286 L 184 286 L 185 286 L 186 286 L 187 285 L 188 285 L 189 285 L 190 285 L 191 285 L 192 285 L 193 285 L 194 284 L 195 284 L 196 284 L 197 284 L 198 284 L 199 284 L 200 284 L 201 283 L 202 283 L 203 283 L 204 283 L 205 283 L 206 283 L 207 282 L 208 282 L 209 282 L 210 282 L 211 282 L 212 282 L 213 281 L 214 281 L 215 281 L 216 281 L 217 281 L 218 280 L 219 280 L 220 280 L 221 280 L 222 280 L 223 280 L 224 279 L 225 279 L 226 279 L 227 279 L 228 279 L 229 278 L 230 278 L 231 278 L 232 278 L 233 278 L 234 278 L 235 277 L 236 277 L 237 277 L 238 277 L 239 277 L 240 276 L 241 276 L 242 276 L 243 276 L 244 275 L 245 275 L 246 275 L 247 275 L 248 275 L 249 274 L 250 274 L 251 274 L 252 274 L 253 273 L 254 273 L 255 273 L 256 273 L 257 272 L 258 272 L 259 272 L 260 272 L 261 271 L 262 271 L 263 271 L 264 271 L 265 270 L 266 270 L 267 270 L 268 270 L 269 269 L 270 269 L 271 269 L 272 269 L 273 268 L 274 268 L 275 268 L 276 268 L 277 267 L 278 267 L 279 267 L 280 266 L 281 266 L 282 266 L 283 266 L 284 265 L 285 265 L 286 265 L 287 264 L 288 264 L 289 264 L 290 264 L 291 263 L 292 263 L 293 263 L 294 262 L 295 262 L 296 262 L 297 261 L 298 261 L 299 261 L 300 261 L 301 260 L 302 260 L 303 260 L 304 259 L 305 259 L 306 259 L 307 258 L 308 258 L 309 258 L 310 257 L 311 257 L 312 257 L 313 257 L 314 256 L 315 256 L 316 256 L 317 255 L 318 255 L 319 255 L 320 254 L 321 254 L 322 254 L 323 253 L 324 253 L 325 253 L 326 252 L 327 252 L 328 251 L 329 251 L 330 251 L 331 250 L 332 250 L 333 250 L 334 249 L 335 249 L 336 249 L 337 248 L 338 248 L 339 248 L 340 247 L 341 247 L 342 246 L 343 246 L 344 246 L 345 245 L 346 245 L 347 245 L 348 244 L 349 244 L 350 244 L 351 243 L 352 243 L 353 243 L 354 242 L 355 242 L 356 241 L 357 241 L 358 241 L 359 240 L 360 240 L 361 239 L 362 239 L 363 239 L 364 238 L 365 238 L 366 238 L 367 237 L 368 237 L 369 236 L 370 236 L 371 235 L 372 235 L 373 235 L 374 234 L 375 234 L 376 233 L 377 233 L 378 232 L 379 232 L 380 232 L 381 231 L 382 231 L 383 230 L 384 230 L 385 229 L 386 229 L 387 229 L 388 228 L 389 228 L 390 227 L 391 227 L 392 226 L 393 226 L 394 226 L 395 225 L 396 225 L 397 224 L 398 224 L 399 223 L 400 223 L 401 222 L 402 222 L 403 222 L 404 221 L 405 220 L 406 220 L 407 220 L 408 219 L 409 219 L 410 218 L 411 218 L 412 217 L 413 217 L 414 216 L 415 216 L 416 215 L 417 215 L 418 214 L 419 214 L 420 213 L 421 213 L 422 212 L 423 212 L 424 211 L 425 211 L 426 210 L 427 209 L 428 209 L 429 209 L 430 208 L 431 207 L 432 207 L 433 206 L 434 206 L 435 205 L 436 205 L 437 204 L 438 204 L 439 203 L 440 202 L 441 202 L 442 201 L 443 201 L 444 200 L 445 200 L 446 199 L 447 199 L 448 198 L 449 197 L 450 197 L 451 196 L 452 196 L 453 195 L 454 195 L 455 194 L 456 194 L 457 193 L 458 192 L 459 192 L 460 191 L 461 190 L 462 190 L 463 189 L 464 189 L 465 188 L 466 187 L 467 186 L 468 186 L 469 185 L 470 185 L 471 184 L 472 183 L 473 183 L 474 182 L 475 181 L 476 181 L 477 180 L 478 179 L 479 178 L 480 178 L 481 177 L 482 176 L 483 176 L 484 175 L 485 174 L 486 174 L 487 173 L 488 172 L 489 171 L 490 171 L 491 170 L 492 169 L 493 168 L 494 168 L 495 167 L 496 166 L 497 165 L 498 165 L 499 164 L 500 163 L 501 162 L 502 161 L 503 161 L 504 160 L 505 159 L 506 158 L 507 157 L 508 156 L 509 155 L 510 155 L 511 154 L 512 153 L 513 152 L 514 151 L 515 150 L 516 149 L 517 148 L 518 147 L 519 146 L 520 145 L 521 144 L 522 143 L 523 142 L 524 141 L 525 140 L 526 139 L 527 138 L 528 137 L 529 136 L 530 135 L 531 134 L 532 133 L 532 132 L 533 131 L 534 130 L 534 129 L 535 128 L 536 127 L 537 126 L 537 125 L 538 124 L 539 123 L 539 122 L 540 121 L 541 120 L 541 119 L 542 118 L 543 117 L 543 116 L 544 115 L 544 114 L 545 113 L 545 112 L 546 111 L 546 110 L 547 109 L 547 108 L 547 107 L 548 106 L 548 105 L 549 104 L 549 103 L 549 102 L 549 101 L 550 100 L 550 99 L 550 98 L 550 97 L 551 96 L 551 95 L 551 94 L 551 93 L 551 92 L 551 91 L 551 90 L 551 89 L 551 88 L 551 87 L 551 86 L 551 85 L 551 84 L 550 83 L 550 82 L 550 81 L 550 80 L 549 79 L 549 78 L 549 77 L 548 76 L 548 75 L 547 74 L 547 73 L 546 72 L 545 71 L 545 70 L 544 69 L 543 68 L 542 67 L 542 66 L 541 65 L 540 64 L 539 63 L 538 62 L 537 61 L 536 61 L 535 60 L 535 59 L 535 58 L 535 57 L 535 56 Z" />
</svg>
